<?xml version="1.0" standalone="no"?>
<!DOCTYPE svg PUBLIC "-//W3C//DTD SVG 20010904//EN"
 "http://www.w3.org/TR/2001/REC-SVG-20010904/DTD/svg10.dtd">
<svg version="1.0" xmlns="http://www.w3.org/2000/svg"
 width="622.000000pt" height="622.000000pt" viewBox="0 0 622.000000 622.000000"
 preserveAspectRatio="xMidYMid meet">
<metadata>
Created by potrace 1.14, written by Peter Selinger 2001-2017
</metadata>
<g transform="translate(0.000000,622.000000) scale(0.100000,-0.100000)"
fill="#000000" stroke="none">
<path d="M1730 6209 c-149 -11 -280 -56 -431 -148 -60 -37 -178 -137 -174
-148 2 -7 -2 -10 -9 -7 -17 7 -151 -159 -209 -258 -88 -152 -118 -264 -121
-444 -2 -72 -7 -127 -14 -135 -140 -173 -179 -211 -231 -222 -23 -5 -52 -24
-82 -55 -26 -26 -72 -71 -103 -101 -103 -98 -146 -226 -146 -436 0 -200 27
-300 108 -407 70 -92 108 -119 182 -127 60 -7 64 -10 124 -72 149 -156 182
-208 185 -292 2 -70 36 -232 66 -317 85 -236 276 -468 481 -581 l64 -36 -95
-91 c-52 -51 -95 -96 -95 -101 0 -14 -48 -27 -106 -30 -28 -1 -60 -4 -70 -6
-10 -2 -22 -4 -25 -4 -14 -2 -19 -55 -8 -88 10 -31 9 -40 -10 -73 -27 -48 -68
-174 -84 -260 -24 -123 -7 -303 43 -448 73 -210 196 -360 327 -398 193 -56
387 90 371 280 -6 68 -27 110 -98 190 -33 37 -60 70 -60 74 0 4 -14 58 -30
120 -16 62 -26 124 -24 138 9 48 45 109 103 173 l58 63 1 -83 c2 -155 22 -250
73 -352 38 -74 137 -174 214 -214 72 -38 187 -71 235 -67 35 3 35 2 37 -39 4
-71 12 -102 38 -137 22 -30 23 -35 10 -54 -33 -46 -11 -180 33 -207 20 -13 20
-13 1 -38 -23 -28 -20 -86 6 -149 8 -19 15 -37 15 -41 0 -3 -24 -21 -53 -39
-90 -58 -153 -166 -158 -276 -2 -26 -6 -49 -10 -52 -4 -2 -26 -5 -48 -6 -23
-1 -41 -6 -41 -12 0 -6 -4 -5 -8 2 -6 9 -16 10 -33 4 -13 -4 -50 -7 -82 -6
-42 2 -55 0 -50 -9 5 -9 2 -8 -9 0 -8 7 -17 11 -19 8 -3 -2 -31 -5 -62 -6 -31
-1 -54 -5 -52 -9 2 -4 -2 -7 -10 -7 -8 0 -12 4 -9 9 3 5 -7 6 -23 3 -15 -3
-50 -8 -78 -10 -55 -5 -142 -32 -150 -45 -3 -5 7 -12 22 -16 15 -3 42 -10 58
-14 108 -30 441 -64 865 -86 162 -9 1423 -9 1515 -1 39 4 115 9 170 12 55 3
125 8 155 10 30 2 105 7 165 11 61 3 113 8 117 11 4 2 31 6 60 9 72 6 178 25
208 37 14 6 31 11 38 13 42 8 17 37 -32 38 -19 1 -32 5 -29 10 3 5 -11 7 -31
4 -20 -2 -36 0 -36 5 0 5 -15 8 -32 6 -18 -1 -40 1 -48 5 -8 3 -61 7 -117 9
-57 1 -103 4 -103 7 0 3 -15 5 -34 5 -19 0 -32 -3 -29 -7 2 -5 -1 -8 -6 -8 -6
0 -11 5 -11 11 0 8 -6 7 -17 -2 -9 -8 -14 -9 -10 -3 4 8 -4 11 -26 11 -77 0
-74 -2 -82 62 -13 115 -90 235 -186 290 -43 24 -46 28 -33 45 7 10 18 42 25
72 11 48 10 56 -10 90 -22 37 -20 45 12 57 11 4 26 74 27 125 0 24 -7 56 -16
72 -16 26 -16 29 7 59 20 27 24 45 24 99 l0 67 66 2 c82 2 205 41 274 87 145
95 229 250 219 402 -12 191 -13 224 -4 219 6 -3 10 -10 10 -15 0 -6 8 -19 18
-31 9 -11 25 -30 35 -42 102 -123 173 -165 298 -173 230 -16 476 114 685 361
139 164 205 306 205 441 0 124 -52 213 -150 257 -36 17 -67 21 -141 22 -82 0
-102 -3 -145 -25 -81 -41 -117 -84 -144 -175 -35 -114 -105 -224 -194 -304
l-27 -24 -41 29 c-42 29 -149 141 -149 156 0 4 6 8 13 8 15 0 93 49 142 88
188 151 302 305 388 522 33 83 55 192 63 311 l7 94 68 90 c117 154 138 173
205 181 90 10 181 85 260 215 57 95 76 160 82 286 11 240 -38 372 -204 552
-59 63 -59 63 -126 70 -52 5 -74 13 -95 32 -65 60 -93 87 -139 138 l-49 53 -6
137 c-6 151 -25 230 -86 361 -80 169 -254 368 -415 474 -106 70 -249 130 -359
151 -101 19 -395 20 -418 2 -12 -9 -13 -9 -7 1 10 17 -521 17 -543 -1 -12 -9
-13 -9 -7 1 6 9 -18 12 -106 12 -77 0 -118 -4 -127 -12 -11 -10 -13 -10 -7 0
5 9 -7 12 -47 12 -61 0 -72 -6 -54 -29 11 -14 10 -14 -5 -2 -10 7 -15 17 -13
22 8 12 -98 9 -114 -4 -12 -9 -13 -9 -7 1 6 10 -17 12 -111 10 -82 -2 -118 -7
-118 -15 0 -6 -3 -15 -7 -19 -4 -3 -6 3 -3 15 4 19 0 21 -49 21 -28 0 -58 -6
-65 -12 -11 -11 -13 -10 -7 0 6 9 -70 12 -364 11 -204 0 -374 2 -377 5 -4 3
-12 1 -20 -5 -7 -6 -13 -8 -13 -3 0 10 -89 12 -210 3z m1397 -24 c0 -8 -4 -12
-9 -9 -5 3 -6 10 -3 15 9 13 12 11 12 -6z m841 -10 c-3 -3 -9 2 -12 12 -6 14
-5 15 5 6 7 -7 10 -15 7 -18z m179 12 c0 -8 -6 -14 -14 -14 -9 0 -10 4 -2 14
6 7 12 13 14 13 1 0 2 -6 2 -13z m-1957 -3 c0 -8 -19 -13 -24 -6 -3 5 1 9 9 9
8 0 15 -2 15 -3z m114 -6 c-3 -4 -11 -5 -19 -1 -21 7 -19 12 4 10 11 0 18 -5
15 -9z m257 -5 c13 -16 12 -17 -3 -4 -10 7 -18 15 -18 17 0 8 8 3 21 -13z
m329 7 c0 -5 -2 -10 -4 -10 -3 0 -8 5 -11 10 -3 6 -1 10 4 10 6 0 11 -4 11
-10z m700 0 c0 -5 -5 -10 -11 -10 -5 0 -7 5 -4 10 3 6 8 10 11 10 2 0 4 -4 4
-10z m94 -6 c3 -8 2 -12 -4 -9 -6 3 -10 10 -10 16 0 14 7 11 14 -7z m-1579 -3
c3 -5 2 -12 -3 -15 -5 -3 -9 1 -9 9 0 17 3 19 12 6z m42 -6 c0 -8 -4 -12 -9
-9 -5 3 -6 10 -3 15 9 13 12 11 12 -6z m200 0 c0 -8 -4 -12 -9 -9 -5 3 -6 10
-3 15 9 13 12 11 12 -6z m-117 1 c0 -3 -4 -8 -10 -11 -5 -3 -10 -1 -10 4 0 6
5 11 10 11 6 0 10 -2 10 -4z m285 -6 c3 -6 -1 -7 -9 -4 -18 7 -21 14 -7 14 6
0 13 -4 16 -10z m270 0 c3 -5 1 -10 -4 -10 -6 0 -11 5 -11 10 0 6 2 10 4 10 3
0 8 -4 11 -10z m159 2 c3 -5 -1 -9 -9 -9 -8 0 -12 4 -9 9 3 4 7 8 9 8 2 0 6
-4 9 -8z m60 0 c3 -5 -1 -9 -9 -9 -8 0 -12 4 -9 9 3 4 7 8 9 8 2 0 6 -4 9 -8z
m261 -1 c3 -5 2 -12 -3 -15 -5 -3 -9 1 -9 9 0 17 3 19 12 6z m690 -1 c3 -6 -1
-7 -9 -4 -18 7 -21 14 -7 14 6 0 13 -4 16 -10z m275 0 c0 -5 -5 -10 -11 -10
-5 0 -7 5 -4 10 3 6 8 10 11 10 2 0 4 -4 4 -10z m-1615 -20 c3 -6 -1 -7 -9 -4
-18 7 -21 14 -7 14 6 0 13 -4 16 -10z m230 -8 c-3 -3 -11 0 -18 7 -9 10 -8 11
6 5 10 -3 15 -9 12 -12z m655 8 c-8 -5 -19 -10 -25 -10 -5 0 -3 5 5 10 8 5 20
10 25 10 6 0 3 -5 -5 -10z m676 -2 c3 -4 -1 -5 -10 -4 -8 1 -18 5 -22 8 -3 4
1 5 10 4 8 -1 18 -5 22 -8z m-1251 -27 c3 -5 2 -12 -3 -15 -5 -3 -9 1 -9 9 0
17 3 19 12 6z m2505 -3891 c0 -5 -5 -10 -11 -10 -5 0 -7 5 -4 10 3 6 8 10 11
10 2 0 4 -4 4 -10z m35 0 c3 -5 1 -10 -4 -10 -6 0 -11 5 -11 10 0 6 2 10 4 10
3 0 8 -4 11 -10z m-73 -24 c6 4 8 2 4 -4 -3 -5 -2 -12 4 -14 6 -2 2 -8 -9 -15
-16 -10 -22 -9 -33 5 -12 15 -11 16 4 4 10 -8 19 -9 22 -3 4 5 2 12 -4 16 -5
3 -10 12 -9 18 0 9 2 8 6 -1 2 -6 10 -9 15 -6z m118 10 c0 -3 -4 -8 -10 -11
-5 -3 -10 -1 -10 4 0 6 5 11 10 11 6 0 10 -2 10 -4z m-65 -26 c-9 -14 8 -12
25 3 12 10 12 9 4 -3 -6 -8 -9 -25 -8 -37 1 -21 0 -21 -20 -8 -27 20 -36 19
-36 -2 0 -15 -2 -16 -10 -3 -11 18 7 32 35 24 19 -5 19 -4 2 9 -14 11 -15 16
-5 20 19 8 20 8 13 -3z m-335 -34 c0 -8 14 -19 31 -26 26 -11 32 -11 39 1 10
15 -7 42 -21 33 -5 -3 -9 0 -9 5 0 17 27 13 34 -4 3 -9 14 -15 23 -13 11 2 17
-2 15 -11 -2 -9 3 -11 13 -7 9 3 13 2 10 -4 -3 -5 6 -12 20 -16 14 -3 25 -10
25 -16 0 -5 -5 -6 -10 -3 -6 4 -10 3 -9 -2 3 -20 -2 -27 -11 -13 -6 9 -10 10
-10 3 0 -16 21 -28 29 -16 11 18 39 11 36 -9 -3 -11 2 -18 13 -19 12 0 10 -3
-6 -9 -14 -6 -22 -17 -20 -27 2 -12 -3 -17 -15 -15 -9 2 -16 -1 -15 -5 2 -4 0
-8 -3 -8 -3 0 -13 -6 -22 -14 -15 -12 -17 -11 -17 3 0 9 6 15 13 13 6 -1 11 4
9 11 -1 8 2 11 9 6 8 -4 9 -3 5 4 -5 8 -2 10 8 6 9 -3 16 -2 16 3 0 5 -9 9
-20 10 -11 1 -20 -3 -20 -8 0 -6 -6 -7 -12 -3 -7 4 -10 3 -5 -1 4 -5 0 -17
-10 -27 -19 -22 -41 -25 -23 -3 11 13 10 14 -5 9 -13 -5 -16 -4 -11 4 11 18
-5 14 -19 -4 -10 -15 -12 -14 -11 7 1 13 6 28 11 32 6 5 2 6 -9 3 -20 -7 -51
26 -51 54 0 9 -8 14 -20 13 -11 -1 -14 0 -7 3 6 3 12 10 12 15 0 6 -4 7 -10 4
-6 -4 -7 1 -3 11 4 11 8 13 11 6 2 -7 8 -10 12 -7 5 3 5 17 0 31 -7 17 -7 23
0 19 6 -3 10 -12 10 -19z m61 -19 c-8 -8 -14 -7 -23 2 -10 11 -10 13 0 7 6 -4
12 -2 12 4 0 6 5 8 11 4 8 -4 8 -9 0 -17z m-341 -32 c-13 -14 -19 -25 -13 -25
6 0 23 14 37 31 14 17 26 28 26 26 0 -3 3 -13 7 -23 5 -14 3 -16 -13 -11 -14
6 -13 2 6 -13 15 -12 18 -18 8 -14 -20 7 -23 -4 -7 -26 10 -13 10 -13 6 1 -3
9 1 16 8 16 7 0 12 -5 11 -11 -2 -6 -1 -8 1 -3 3 4 9 5 14 2 5 -4 6 1 3 9 -3
9 -11 16 -17 16 -7 0 -7 4 1 12 10 10 14 10 21 0 4 -8 15 -10 26 -6 14 6 16 4
10 -6 -6 -10 -4 -12 10 -6 16 6 16 4 4 -11 -9 -11 -10 -14 -1 -9 11 6 17 -5
13 -26 -2 -13 17 -9 23 5 3 6 3 0 0 -15 -4 -18 -2 -28 6 -28 6 0 9 -4 5 -9 -3
-5 -1 -12 5 -16 6 -4 8 -11 5 -16 -4 -5 -1 -9 4 -9 6 0 11 -11 11 -25 0 -13 8
-28 17 -33 9 -6 18 -17 19 -26 1 -9 -2 -14 -7 -10 -5 3 -9 0 -9 -6 0 -7 -7
-10 -15 -7 -8 4 -17 1 -21 -5 -5 -7 -2 -8 7 -3 8 5 11 4 6 -1 -11 -12 -167
-11 -167 1 0 6 -4 5 -8 -1 -11 -18 -77 14 -96 47 -14 23 -14 28 -1 39 16 13
11 30 -8 30 -8 0 -8 -3 2 -9 8 -5 9 -11 3 -15 -18 -11 -20 18 -3 38 9 11 11
16 5 13 -9 -5 -9 3 -2 33 l10 39 30 -15 c29 -15 29 -15 18 6 -6 11 -14 18 -18
16 -5 -3 -14 -1 -22 5 -11 6 -12 9 -2 9 7 0 11 4 8 9 -3 5 1 14 9 21 8 7 12
17 8 23 -3 6 -1 7 6 3 6 -4 14 0 17 9 4 9 9 13 12 10 3 -3 -5 -16 -18 -30z
m104 23 c-3 -4 0 -8 5 -8 6 0 11 -8 11 -17 -1 -17 -1 -17 -14 -1 -12 16 -14
16 -30 0 -16 -16 -17 -16 -10 1 3 9 10 17 16 17 5 0 7 4 4 8 -3 5 1 9 9 9 8 0
12 -4 9 -9z m396 -118 c0 -5 -2 -10 -4 -10 -3 0 -8 5 -11 10 -3 6 -1 10 4 10
6 0 11 -4 11 -10z m-2057 -793 c2 -40 8 -64 25 -87 l23 -31 -27 -54 c-22 -46
-25 -64 -21 -108 7 -72 15 -87 49 -94 l29 -6 -21 -22 c-39 -41 -50 -123 -28
-198 11 -38 11 -41 -12 -56 -77 -48 -134 -132 -176 -260 -25 -77 -41 -83 -49
-19 -13 92 -42 155 -106 223 -33 34 -70 66 -83 69 -22 5 -23 7 -11 53 16 62 9
140 -16 182 -19 32 -19 34 -2 53 11 13 19 41 21 83 4 54 0 70 -23 113 l-27 49
26 28 c24 26 34 70 27 122 -1 10 42 12 188 11 104 -2 193 1 197 5 12 12 16 1
17 -56z m-1222 -1030 c-10 -9 -11 -8 -5 6 3 10 9 15 12 12 3 -3 0 -11 -7 -18z"/>
<path d="M5105 2110 c-8 -13 -1 -23 19 -26 16 -2 15 28 -1 33 -6 2 -14 -1 -18
-7z m25 -4 c0 -3 -4 -8 -10 -11 -5 -3 -10 -1 -10 4 0 6 5 11 10 11 6 0 10 -2
10 -4z"/>
<path d="M5110 2058 c0 -6 3 -8 7 -5 3 4 12 -1 20 -11 13 -15 13 -15 3 6 -11
23 -30 30 -30 10z"/>
<path d="M5236 2047 c3 -10 9 -15 12 -12 3 3 0 11 -7 18 -10 9 -11 8 -5 -6z"/>
<path d="M5294 2051 c4 -7 -2 -15 -16 -20 -17 -7 -19 -10 -5 -10 9 -1 20 -1
24 -1 11 -1 12 29 1 37 -7 3 -8 1 -4 -6z"/>
<path d="M5207 2039 c7 -7 15 -10 18 -7 3 3 -2 9 -12 12 -14 6 -15 5 -6 -5z"/>
<path d="M5192 2011 c-11 -6 -10 -10 4 -15 9 -3 19 -4 22 -1 3 3 0 5 -7 5 -7
0 -9 5 -6 10 7 12 4 12 -13 1z"/>
<path d="M4840 2074 c-7 -8 -18 -13 -25 -10 -6 2 -12 -1 -12 -8 0 -11 9 -12
48 -7 11 2 19 30 10 36 -5 2 -14 -2 -21 -11z m20 2 c0 -2 -8 -10 -17 -17 -16
-13 -17 -12 -4 4 13 16 21 21 21 13z"/>
<path d="M4852 2031 c-11 -6 -10 -10 0 -19 11 -8 14 -7 14 9 0 10 0 19 -1 19
0 0 -6 -4 -13 -9z"/>
<path d="M4786 1993 c-4 -9 -3 -20 1 -24 4 -4 9 3 9 17 2 28 -1 31 -10 7z"/>
<path d="M4813 1985 c0 -8 4 -12 9 -9 5 3 6 10 3 15 -9 13 -12 11 -12 -6z"/>
</g>
</svg>
